<?xml version="1.0" encoding="UTF-8"?>
<svg xmlns="http://www.w3.org/2000/svg" width="24" height="24" viewBox="0 0 24 24" fill="none">
  <path fill-rule="evenodd" clip-rule="evenodd" d="M12 22.5C14.7848 22.5 17.4555 21.3938 19.4246 19.4246C21.3938 17.4555 22.5 14.7848 22.5 12C22.5 9.21523 21.3938 6.54451 19.4246 4.57538C17.4555 2.60625 14.7848 1.5 12 1.5C9.21523 1.5 6.54451 2.60625 4.57538 4.57538C2.60625 6.54451 1.5 9.21523 1.5 12C1.5 14.7848 2.60625 17.4555 4.57538 19.4246C6.54451 21.3938 9.21523 22.5 12 22.5ZM12 24C15.1826 24 18.2348 22.7357 20.4853 20.4853C22.7357 18.2348 24 15.1826 24 12C24 8.8174 22.7357 5.76516 20.4853 3.51472C18.2348 1.26428 15.1826 0 12 0C8.8174 0 5.76516 1.26428 3.51472 3.51472C1.26428 5.76516 0 8.8174 0 12C0 15.1826 1.26428 18.2348 3.51472 20.4853C5.76516 22.7357 8.8174 24 12 24Z" fill="#479FC8"></path>
  <path fill-rule="evenodd" clip-rule="evenodd" d="M6.96912 11.4691C7.03879 11.3993 7.12155 11.3439 7.21267 11.3061C7.30379 11.2682 7.40147 11.2488 7.50012 11.2488C7.59877 11.2488 7.69645 11.2682 7.78757 11.3061C7.87869 11.3439 7.96145 11.3993 8.03112 11.4691L12.0001 15.4396L15.9691 11.4691C16.1099 11.3283 16.301 11.2492 16.5001 11.2492C16.6993 11.2492 16.8903 11.3283 17.0311 11.4691C17.1719 11.6099 17.2511 11.801 17.2511 12.0001C17.2511 12.1993 17.1719 12.3903 17.0311 12.5311L12.5311 17.0311C12.4615 17.101 12.3787 17.1564 12.2876 17.1942C12.1965 17.232 12.0988 17.2515 12.0001 17.2515C11.9015 17.2515 11.8038 17.232 11.7127 17.1942C11.6216 17.1564 11.5388 17.101 11.4691 17.0311L6.96912 12.5311C6.89927 12.4615 6.84386 12.3787 6.80605 12.2876C6.76824 12.1965 6.74878 12.0988 6.74878 12.0001C6.74878 11.9015 6.76824 11.8038 6.80605 11.7127C6.84386 11.6216 6.89927 11.5388 6.96912 11.4691Z" fill="#479FC8"></path>
  <path fill-rule="evenodd" clip-rule="evenodd" d="M12 6.75C12.1989 6.75 12.3897 6.82902 12.5303 6.96967C12.671 7.11032 12.75 7.30109 12.75 7.5V15C12.75 15.1989 12.671 15.3897 12.5303 15.5303C12.3897 15.671 12.1989 15.75 12 15.75C11.8011 15.75 11.6103 15.671 11.4697 15.5303C11.329 15.3897 11.25 15.1989 11.25 15V7.5C11.25 7.30109 11.329 7.11032 11.4697 6.96967C11.6103 6.82902 11.8011 6.75 12 6.75Z" fill="#479FC8"></path>
</svg>
